<?xml version="1.0" encoding="UTF-8"?>
<mxfile host="app.diagrams.net">
  <diagram name="Page-1">
    <mxGraphModel dx="743" dy="462" grid="1" gridSize="10" guides="1" tooltips="1" connect="1" arrows="1" fold="1" page="1" pageScale="1" pageWidth="827" pageHeight="1169" math="0" shadow="0">
      <root>
        <mxCell id="0" value="Accommodation Sequence" style="group" vertex="1" connectable="0">
          <mxGeometry x="0" y="0" width="827" height="1169" as="geometry"/>
        </mxCell>
        <mxCell id="1" value="User" style="swimlane;html=1;whiteSpace=wrap;rounded=0;whiteSpace=wrap;html=1;" vertex="1" connectable="0">
          <mxGeometry x="0" y="0" width="60" height="120" as="geometry"/>
        </mxCell>
        <mxCell id="2" value="System" style="swimlane;html=1;whiteSpace=wrap;rounded=0;whiteSpace=wrap;html=1;" vertex="1" connectable="0">
          <mxGeometry x="60" y="0" width="200" height="120" as="geometry"/>
        </mxCell>
        <mxCell id="3" value="Database" style="swimlane;html=1;whiteSpace=wrap;rounded=0;whiteSpace=wrap;html=1;" vertex="1" connectable="0">
          <mxGeometry x="260" y="0" width="60" height="120" as="geometry"/>
        </mxCell>
        <mxCell id="4" value="PaymentGateway" style="swimlane;html=1;whiteSpace=wrap;rounded=0;whiteSpace=wrap;html=1;" vertex="1" connectable="0">
          <mxGeometry x="320" y="0" width="100" height="120" as="geometry"/>
        </mxCell>
        <mxCell id="5" value="searchAccommodation()" style="edgeStyle=orthogonalEdgeStyle;rounded=0;orthogonalLoop=1;jettySize=auto;html=1;exitX=0.5;exitY=0.0;exitDx=0;exitDy=0;" edge="1" parent="0" source="1" target="2">
          <mxGeometry relative="1" as="geometry"/>
        </mxCell>
        <mxCell id="6" value="showAvailableRooms()" style="edgeStyle=orthogonalEdgeStyle;rounded=0;orthogonalLoop=1;jettySize=auto;html=1;exitX=0.5;exitY=0.0;exitDx=0;exitDy=0;" edge="1" parent="0" source="2" target="1">
          <mxGeometry relative="1" as="geometry"/>
        </mxCell>
        <mxCell id="7" value="selectAccommodation()" style="edgeStyle=orthogonalEdgeStyle;rounded=0;orthogonalLoop=1;jettySize=auto;html=1;exitX=0.5;exitY=0.0;exitDx=0;exitDy=0;" edge="1" parent="0" source="1" target="2">
          <mxGeometry relative="1" as="geometry"/>
        </mxCell>
        <mxCell id="8" value="showConfirmation()" style="edgeStyle=orthogonalEdgeStyle;rounded=0;orthogonalLoop=1;jettySize=auto;html=1;exitX=0.5;exitY=0.0;exitDx=0;exitDy=0;" edge="1" parent="0" source="2" target="1">
          <mxGeometry relative="1" as="geometry"/>
        </mxCell>
        <mxCell id="9" value="modifyBooking()" style="edgeStyle=orthogonalEdgeStyle;rounded=0;orthogonalLoop=1;jettySize=auto;html=1;exitX=0.5;exitY=0.0;exitDx=0;exitDy=0;" edge="1" parent="0" source="1" target="2">
          <mxGeometry relative="1" as="geometry"/>
        </mxCell>
        <mxCell id="10" value="showUpdatedBooking()" style="edgeStyle=orthogonalEdgeStyle;rounded=0;orthogonalLoop=1;jettySize=auto;html=1;exitX=0.5;exitY=0.0;exitDx=0;exitDy=0;" edge="1" parent="0" source="2" target="1">
          <mxGeometry relative="1" as="geometry"/>
        </mxCell>
        <mxCell id="11" value="cancelBooking()" style="edgeStyle=orthogonalEdgeStyle;rounded=0;orthogonalLoop=1;jettySize=auto;html=1;exitX=0.5;exitY=0.0;exitDx=0;exitDy=0;" edge="1" parent="0" source="1" target="2">
          <mxGeometry relative="1" as="geometry"/>
        </mxCell>
        <mxCell id="12" value="showCancellationConfirmation()" style="edgeStyle=orthogonalEdgeStyle;rounded=0;orthogonalLoop=1;jettySize=auto;html=1;exitX=0.5;exitY=0.0;exitDx=0;exitDy=0;" edge="1" parent="0" source="2" target="1">
          <mxGeometry relative="1" as="geometry"/>
        </mxCell>
      </root>
    </mxGraphModel>
  </diagram>
</mxfile>
